# xmcd
#
# Track frame offsets: 
#        150
#        10623
#        33302
#        45349
#        62411
#        80279
#        95859
#        106819
#        126413
#        153457
#
# Disc length: 2202 seconds
#
# Revision: 0
# Processed by: cddbd v1.5.2PL0 Copyright (c) Steve Scherf et al.
# Submitted via: ExactAudioCopy v0.99pb4
#
DISCID=7008980a
DTITLE=THE MELTON BROTHERS - THE MELTON BROTHERS and WASHBOARD BILL
DYEAR=2001
DGENRE=Blues
TTITLE0=Choo Choo Ch'Boogie
TTITLE1=T-Bone Shuffle
TTITLE2=Trickle Trickle
TTITLE3=Ode To Joy
TTITLE4=Flip Flop and Fly
TTITLE5=Found love
TTITLE6=That Cat Is High
TTITLE7=More Money
TTITLE8=My Babe
TTITLE9=Morning Jam
EXTD=
EXTT0=
EXTT1=
EXTT2=
EXTT3=
EXTT4=
EXTT5=
EXTT6=
EXTT7=
EXTT8=
EXTT9=
PLAYORDER=
